<svg xmlns="http://www.w3.org/2000/svg" xmlns:xlink="http://www.w3.org/1999/xlink" width="258.853" height="208.858" viewBox="0 0 258.853 208.858">
  <defs>
    <filter id="Path_11649" x="32.673" y="101.672" width="226.179" height="91.402" filterUnits="userSpaceOnUse">
      <feOffset dy="3" input="SourceAlpha"/>
      <feGaussianBlur stdDeviation="3" result="blur"/>
      <feFlood flood-opacity="0.161"/>
      <feComposite operator="in" in2="blur"/>
      <feComposite in="SourceGraphic"/>
    </filter>
  </defs>
  <g id="مشاهده_جزئیات_عوارض_سالیانه_خودرو" data-name="مشاهده جزئیات عوارض سالیانه خودرو" transform="translate(-71.65 -64.457)">
    <g id="Group_3775" data-name="Group 3775" transform="translate(116.078 66.956)">
      <g id="Group_3766" data-name="Group 3766" transform="translate(11.543 0)" opacity="0.9">
        <path id="Path_11616" data-name="Path 11616" d="M162.878,74.953l-4.589,47.378H306.044l4.912-51.524H167.445A4.588,4.588,0,0,0,162.878,74.953Z" transform="translate(-158.289 -70.807)" fill="#dde4f3" stroke="#128c7e" stroke-width="5" opacity="0.7"/>
        <g id="Group_3764" data-name="Group 3764" transform="translate(4.631 4.168)">
          <path id="Path_11617" data-name="Path 11617" d="M208.7,120.494H165.51l4.068-43.188h43.188Z" transform="translate(-165.51 -77.306)" fill="#fff"/>
          <path id="Path_11618" data-name="Path 11618" d="M205.881,87.72c-5.816-5.473-16.546-9.4-21.791-5.406-8,6.09-4.565,31.616,6.312,33.713,8.053,1.552,21.221-9.539,20.852-18.985C211.081,92.615,207.979,89.695,205.881,87.72Z" transform="translate(-170.601 -78.517)" fill="#dae2f2"/>
          <path id="Path_11674" data-name="Path 11674" d="M205.881,87.72c-5.816-5.473-16.546-9.4-21.791-5.406-8,6.09-4.565,31.616,6.312,33.713,8.053,1.552,21.221-9.539,20.852-18.985C211.081,92.615,207.979,89.695,205.881,87.72Z" transform="matrix(0.017, 1, -1, 0.017, 111.883, -116.26)" fill="#dae2f2"/>
        </g>
        <path id="Path_11621" data-name="Path 11621" d="M242.431,78.466l-.249,2.569a1.284,1.284,0,0,0,1.279,1.408h47.954a1.284,1.284,0,0,0,1.279-1.162l.245-2.568a1.285,1.285,0,0,0-1.279-1.406h-47.95A1.284,1.284,0,0,0,242.431,78.466Z" transform="translate(-188.381 -62.824)" fill="#ffbd07"/>
        <path id="Path_11622" data-name="Path 11622" d="M240.813,93.777h0a1.284,1.284,0,0,0,1.278,1.408H276.3a1.285,1.285,0,0,0,1.279-1.162h0a1.285,1.285,0,0,0-1.279-1.406H242.091A1.284,1.284,0,0,0,240.813,93.777Z" transform="translate(-187.89 -68.316)" fill="#128c7e"/>
        <path id="Path_11623" data-name="Path 11623" d="M239.875,104.839h0a1.284,1.284,0,0,0,1.278,1.408h71.656a1.284,1.284,0,0,0,1.279-1.163h0a1.285,1.285,0,0,0-1.279-1.406H241.153A1.285,1.285,0,0,0,239.875,104.839Z" transform="translate(-187.553 -72.284)" fill="#128c7e"/>
        <path id="Path_11625" data-name="Path 11625" d="M238.165,120.964h0a1.284,1.284,0,0,0,1.278,1.408H311.1a1.285,1.285,0,0,0,1.279-1.163h0A1.285,1.285,0,0,0,311.1,119.8H239.443A1.285,1.285,0,0,0,238.165,120.964Z" transform="translate(-185.908 -81.163)" fill="#128c7e"/>
      </g>
      <g id="Group_3769" data-name="Group 3769" transform="translate(5.423 61.775)" opacity="0.7">
        <path id="Path_11632" data-name="Path 11632" d="M153.737,159.34l-4.99,51.524H296.5l4.912-51.524Z" transform="translate(-148.747 -159.34)" fill="#e9eef7" stroke="#128c7e" stroke-width="5"/>
        <path id="Path_11633" data-name="Path 11633" d="M232.889,166.942l-.249,2.44a1.246,1.246,0,0,0,1.278,1.337H305.8a1.261,1.261,0,0,0,1.278-1.1l.245-2.44a1.246,1.246,0,0,0-1.279-1.335H234.167A1.261,1.261,0,0,0,232.889,166.942Z" transform="translate(-178.839 -150.327)" fill="#128c7e"/>
        <path id="Path_11634" data-name="Path 11634" d="M231.27,182.31h0a1.284,1.284,0,0,0,1.278,1.408H248.36a1.284,1.284,0,0,0,1.278-1.162h0a1.284,1.284,0,0,0-1.278-1.406H232.548A1.284,1.284,0,0,0,231.27,182.31Z" transform="translate(-178.347 -155.819)" fill="#128c7e"/>
        <path id="Path_11635" data-name="Path 11635" d="M264.187,182.31h0a1.284,1.284,0,0,0,1.278,1.408h15.812a1.285,1.285,0,0,0,1.279-1.162h0a1.285,1.285,0,0,0-1.279-1.406H265.465A1.284,1.284,0,0,0,264.187,182.31Z" transform="translate(-190.155 -155.819)" fill="#128c7e"/>
        <path id="Path_11636" data-name="Path 11636" d="M230.333,193.373h0a1.284,1.284,0,0,0,1.278,1.408h71.656a1.284,1.284,0,0,0,1.278-1.163h0a1.284,1.284,0,0,0-1.278-1.406H231.611A1.284,1.284,0,0,0,230.333,193.373Z" transform="translate(-178.011 -159.787)" fill="#128c7e"/>
        <path id="Path_11638" data-name="Path 11638" d="M228.622,209.5h0a1.285,1.285,0,0,0,1.279,1.408h47.283a1.284,1.284,0,0,0,1.278-1.163h0a1.284,1.284,0,0,0-1.278-1.406H229.9A1.285,1.285,0,0,0,228.622,209.5Z" transform="translate(-177.397 -168.666)" fill="#128c7e"/>
        <g id="Group_3768" data-name="Group 3768" transform="translate(4.313 4.168)">
          <path id="Path_11643" data-name="Path 11643" d="M198.66,209.028H155.472l4.068-43.188h43.188Z" transform="translate(-155.472 -165.84)" fill="#fff"/>
        </g>
      </g>
      <g id="Group_3773" data-name="Group 3773" transform="translate(0 107.672)">
        <g id="Group_3771" data-name="Group 3771">
          <g transform="matrix(1, 0, 0, 1, -44.43, -110.17)" filter="url(#Path_11649)">
            <path id="Path_11649-2" data-name="Path 11649" d="M146.914,247.874l-6.625,68.4H336.444l6.521-68.4Z" transform="translate(-95.86 -137.7)" fill="#b9ffc9" stroke="#128c7e" stroke-width="5"/>
          </g>
          <path id="Path_11650" data-name="Path 11650" d="M224.515,255.914l-.33,3.41a1.7,1.7,0,0,0,1.7,1.869h33.861a1.706,1.706,0,0,0,1.7-1.543l.324-3.411a1.7,1.7,0,0,0-1.7-1.866H226.212A1.705,1.705,0,0,0,224.515,255.914Z" transform="translate(-152.76 -233.779)" fill="#ffbd07"/>
          <path id="Path_11651" data-name="Path 11651" d="M222.815,271.225h0a1.7,1.7,0,0,0,1.7,1.869h67.911a1.705,1.705,0,0,0,1.7-1.543h0a1.705,1.705,0,0,0-1.7-1.867H224.511A1.7,1.7,0,0,0,222.815,271.225Z" transform="translate(-152.556 -236.055)" fill="#128c7e"/>
          <path id="Path_11652" data-name="Path 11652" d="M221.877,282.287h0a1.705,1.705,0,0,0,1.7,1.87h38.507a1.7,1.7,0,0,0,1.7-1.544h0a1.7,1.7,0,0,0-1.7-1.866H223.573A1.705,1.705,0,0,0,221.877,282.287Z" transform="translate(-152.416 -237.699)" fill="#128c7e"/>
          <path id="Path_11654" data-name="Path 11654" d="M220.167,298.412h0a1.705,1.705,0,0,0,1.7,1.87h95.129a1.706,1.706,0,0,0,1.7-1.543h0a1.7,1.7,0,0,0-1.7-1.866H221.863A1.705,1.705,0,0,0,220.167,298.412Z" transform="translate(-152.162 -244.204)" fill="#128c7e"/>
        </g>
        <g id="Group_3772" data-name="Group 3772" transform="translate(5.725 5.533)">
          <path id="Path_11660" data-name="Path 11660" d="M204.35,311.709H147.015l5.4-57.335h57.335Z" transform="translate(-147.015 -254.374)" fill="#fff"/>
          <path id="Path_11661" data-name="Path 11661" d="M165.369,276.838c-2.454,11.019-.089,26.183,7.666,28.644,11.831,3.755,38.174-21.42,33.676-35.214-3.331-10.214-24-15.5-34.312-7.183C167.565,266.984,166.255,272.863,165.369,276.838Z" transform="translate(-152.344 -253.689)" fill="#dae2f2"/>
        </g>
      </g>
      <g id="Group_3827" data-name="Group 3827" transform="translate(164.436 117.299)">
        <rect id="Rectangle_1993" data-name="Rectangle 1993" width="21.98" height="21.98" rx="6.667" transform="translate(0 0)" fill="#128c7e"/>
        <path id="Path_10816" data-name="Path 10816" d="M418.011,131.848l-2.416-2.9-1.648,1.372,2.416,2.9,1.372,1.648,1.648-1.372,5.542-4.612-1.372-1.648Z" transform="translate(-408.446 -120.061)" fill="#f5f5f5"/>
      </g>
      <g id="Group_5480" data-name="Group 5480" transform="translate(143.718 6.759)" opacity="0.7">
        <rect id="Rectangle_1993-2" data-name="Rectangle 1993" width="13.096" height="13.096" rx="6.548" transform="translate(0 0)" fill="#128c7e"/>
        <path id="Path_10816-2" data-name="Path 10816" d="M416.368,129.984l-1.439-1.729-.982.817,1.439,1.729.817.982.982-.817,3.3-2.748-.817-.982Z" transform="translate(-410.669 -122.961)" fill="#f5f5f5"/>
      </g>
      <g id="Group_5481" data-name="Group 5481" transform="translate(137.624 69.509)" opacity="0.7">
        <rect id="Rectangle_1995" data-name="Rectangle 1995" width="13.096" height="13.097" rx="6.548" transform="translate(0 0)" fill="#ffbd07"/>
        <path id="Path_10818" data-name="Path 10818" d="M416.368,189.984l-1.439-1.729-.982.817,1.439,1.729.817.982.982-.817,3.3-2.748-.817-.982Z" transform="translate(-410.669 -182.961)" fill="#f5f5f5"/>
      </g>
      <g id="Group_5482" data-name="Group 5482" transform="translate(29.898 14.121)" opacity="0.7">
        <path id="Path_1748" data-name="Path 1748" d="M1108.9,829.115h0a1.462,1.462,0,0,1-1.458-1.458v-2.977a1.462,1.462,0,0,1,1.458-1.458h0a1.462,1.462,0,0,1,1.458,1.458v2.977A1.462,1.462,0,0,1,1108.9,829.115Z" transform="translate(-1105.103 -810.979)" fill="#075e54"/>
        <path id="Path_1749" data-name="Path 1749" d="M1462.091,829.115h0a1.462,1.462,0,0,1-1.458-1.458v-2.977a1.462,1.462,0,0,1,1.458-1.458h0a1.463,1.463,0,0,1,1.458,1.458v2.977A1.463,1.463,0,0,1,1462.091,829.115Z" transform="translate(-1446.507 -810.979)" fill="#075e54"/>
        <path id="Path_1750" data-name="Path 1750" d="M1054.532,644.8h-15.159a2.03,2.03,0,0,0-2.023,2.023v6h19.2v-6A2.029,2.029,0,0,0,1054.532,644.8Zm-13.354,5.59a1.428,1.428,0,1,1,1.428-1.428A1.426,1.426,0,0,1,1041.178,650.395Zm11.848-.061a1.428,1.428,0,1,1,1.428-1.428A1.426,1.426,0,0,1,1053.026,650.334Z" transform="translate(-1037.35 -638.517)" fill="#075e54"/>
        <path id="Path_1751" data-name="Path 1751" d="M1094.458,457.439a2.113,2.113,0,0,0-1.829-1.063h-6.4a2.113,2.113,0,0,0-1.829,1.063q-1.677,2.935-3.354,5.863l8.385-.085,8.384.085Q1096.135,460.368,1094.458,457.439Zm-5.158,5.146-4.927.049,1.968-3.445a1.234,1.234,0,0,1,1.075-.626h3.767a1.233,1.233,0,0,1,1.075.626l1.969,3.445Z" transform="translate(-1079.585 -456.376)" fill="#075e54"/>
      </g>
      <g id="Group_5489" data-name="Group 5489" transform="translate(20.898 75.121)" opacity="0.7">
        <path id="Path_1748-2" data-name="Path 1748" d="M1108.9,829.115h0a1.462,1.462,0,0,1-1.458-1.458v-2.977a1.462,1.462,0,0,1,1.458-1.458h0a1.462,1.462,0,0,1,1.458,1.458v2.977A1.462,1.462,0,0,1,1108.9,829.115Z" transform="translate(-1105.103 -810.979)" fill="#075e54"/>
        <path id="Path_1749-2" data-name="Path 1749" d="M1462.091,829.115h0a1.462,1.462,0,0,1-1.458-1.458v-2.977a1.462,1.462,0,0,1,1.458-1.458h0a1.463,1.463,0,0,1,1.458,1.458v2.977A1.463,1.463,0,0,1,1462.091,829.115Z" transform="translate(-1446.507 -810.979)" fill="#075e54"/>
        <path id="Path_1750-2" data-name="Path 1750" d="M1054.532,644.8h-15.159a2.03,2.03,0,0,0-2.023,2.023v6h19.2v-6A2.029,2.029,0,0,0,1054.532,644.8Zm-13.354,5.59a1.428,1.428,0,1,1,1.428-1.428A1.426,1.426,0,0,1,1041.178,650.395Zm11.848-.061a1.428,1.428,0,1,1,1.428-1.428A1.426,1.426,0,0,1,1053.026,650.334Z" transform="translate(-1037.35 -638.517)" fill="#075e54"/>
        <path id="Path_1751-2" data-name="Path 1751" d="M1094.458,457.439a2.113,2.113,0,0,0-1.829-1.063h-6.4a2.113,2.113,0,0,0-1.829,1.063q-1.677,2.935-3.354,5.863l8.385-.085,8.384.085Q1096.135,460.368,1094.458,457.439Zm-5.158,5.146-4.927.049,1.968-3.445a1.234,1.234,0,0,1,1.075-.626h3.767a1.233,1.233,0,0,1,1.075.626l1.969,3.445Z" transform="translate(-1079.585 -456.376)" fill="#075e54"/>
      </g>
    </g>
    <g id="Group_3825" data-name="Group 3825" transform="translate(71.65 164.839)">
      <path id="Path_11614" data-name="Path 11614" d="M0,0,23.672,2.715,39.519,15.921,0,12.5Z" transform="translate(40.551 83.175) rotate(140.192)" fill="#ffbd07"/>
      <rect id="Rectangle_2077" data-name="Rectangle 2077" width="3.929" height="9.491" transform="translate(42.605 79.503) rotate(140.192)" fill="#ffbd07"/>
      <path id="Path_11612" data-name="Path 11612" d="M739.448,971.975a45.51,45.51,0,1,0,16.5-62.209A45.51,45.51,0,0,0,739.448,971.975Zm6.463-3.753a38.036,38.036,0,1,1,70.909-20.545h0a38.041,38.041,0,0,1-70.909,20.544Z" transform="translate(-706.468 -903.604)" fill="#0a4e46"/>
      <path id="Path_11613" data-name="Path 11613" d="M805.019,988.118s39.613-30.079,74.281,10.032h0a38.041,38.041,0,0,0-74.281-10.031Z" transform="translate(-768.948 -954.076)" fill="#949fb5" opacity="0.3"/>
    </g>
    <g id="Group_3828" data-name="Group 3828" transform="translate(133.975 195.742)">
      <path id="Path_1748-3" data-name="Path 1748" d="M1109.812,832.8h0a2.376,2.376,0,0,1-2.369-2.37v-4.838a2.376,2.376,0,0,1,2.369-2.37h0a2.376,2.376,0,0,1,2.37,2.37v4.838A2.377,2.377,0,0,1,1109.812,832.8Z" transform="translate(-1103.641 -803.327)" fill="#075e54"/>
      <path id="Path_1749-3" data-name="Path 1749" d="M1463,832.8h0a2.376,2.376,0,0,1-2.369-2.37v-4.838a2.376,2.376,0,0,1,2.369-2.37h0a2.377,2.377,0,0,1,2.37,2.37v4.838A2.377,2.377,0,0,1,1463,832.8Z" transform="translate(-1437.678 -803.327)" fill="#075e54"/>
      <path id="Path_1750-3" data-name="Path 1750" d="M1065.271,644.8h-24.634a3.3,3.3,0,0,0-3.288,3.288v9.755h31.2v-9.755A3.3,3.3,0,0,0,1065.271,644.8Zm-21.7,9.083a2.32,2.32,0,1,1,2.32-2.32A2.318,2.318,0,0,1,1043.57,653.888Zm19.253-.1a2.32,2.32,0,1,1,2.32-2.32A2.318,2.318,0,0,1,1062.823,653.79Z" transform="translate(-1037.35 -634.586)" fill="#075e54"/>
      <path id="Path_1751-3" data-name="Path 1751" d="M1102.843,458.1a3.435,3.435,0,0,0-2.972-1.728h-10.406a3.435,3.435,0,0,0-2.972,1.728q-2.725,4.769-5.45,9.528l13.625-.138,13.625.138Q1105.568,462.863,1102.843,458.1Zm-8.383,8.363-8.007.079,3.2-5.6a2,2,0,0,1,1.748-1.017h6.122a2,2,0,0,1,1.747,1.017l3.2,5.6Z" transform="translate(-1078.673 -456.376)" fill="#075e54"/>
    </g>
  </g>
</svg>
