<svg xmlns="http://www.w3.org/2000/svg" viewBox="0 0 375.7 249.63"><g data-name="Layer 2" style="isolation:isolate"><g data-name="Layer 1"><g style="opacity:.1"><path d="M344.06 129.41h-23.4a3.24 3.24 0 0 0-3.27 3.2v81.71a3.23 3.23 0 0 0 3.27 3.2h23.4a3.23 3.23 0 0 0 3.26-3.2v-81.71a3.24 3.24 0 0 0-3.26-3.2Zm-17.12 10.65a3.23 3.23 0 0 1 3.23-3.23h4.38a3.23 3.23 0 0 1 3.23 3.23v25.43a3.23 3.23 0 0 1-3.23 3.23h-4.38a3.23 3.23 0 0 1-3.23-3.23Zm5.18 57a6.28 6.28 0 1 1 6.41-6.28 6.35 6.35 0 0 1-6.41 6.28Z" style="fill:#128c7e"/></g><path d="M153.06 97.22v107.1a4.23 4.23 0 0 1-4.28 4.18h-30.67a4.22 4.22 0 0 1-4.27-4.18V97.22a4.23 4.23 0 0 1 4.27-4.22h30.67a4.24 4.24 0 0 1 4.28 4.22Z" style="fill:#bfe8e0"/><g style="opacity:.22;mix-blend-mode:screen"><path d="M152.75 97.22v107.1a4.23 4.23 0 0 1-4.28 4.18H117.8a4.23 4.23 0 0 1-4.28-4.18V97.22A4.24 4.24 0 0 1 117.8 93h30.67a4.24 4.24 0 0 1 4.28 4.22Z" style="fill:#bae2d6"/></g><path d="M154.36 97.22v107.1a4.22 4.22 0 0 1-4.27 4.18h-.8V93h.8a4.23 4.23 0 0 1 4.27 4.22Z" style="fill:#bae2d6"/><path d="M136.32 146.65h-5.74a6.34 6.34 0 0 1-6.33-6.33V107a6.33 6.33 0 0 1 6.33-6.32h5.74a6.33 6.33 0 0 1 6.33 6.32v33.34a6.34 6.34 0 0 1-6.33 6.31Zm-5.74-41.8a2.13 2.13 0 0 0-2.13 2.13v33.34a2.13 2.13 0 0 0 2.13 2.13h5.74a2.13 2.13 0 0 0 2.13-2.13V107a2.14 2.14 0 0 0-2.13-2.13ZM133.14 183.79a10.33 10.33 0 1 1 10.5-10.32 10.43 10.43 0 0 1-10.5 10.32Zm0-16.45a6.13 6.13 0 1 0 6.3 6.13 6.23 6.23 0 0 0-6.3-6.13Z" style="fill:#fff"/><path d="M118.11 48.69H83.52l-.12-.86a8.48 8.48 0 0 0-3.4-6.16c-3.34-2.28-8-1.22-8-1.21l-1.31.31.08-1.35c.6-9.12-8-10-8.39-10-3.5 0-6.19.91-7.93 2.69A7.52 7.52 0 0 0 52.37 37v1.15L51.26 38c-4.27-.46-7.65.32-10 2.35a11.47 11.47 0 0 0-3.69 7.35l-.06.94H0v-2h35.64a13.2 13.2 0 0 1 4.27-7.8c2.62-2.23 6.17-3.21 10.55-2.92A9.48 9.48 0 0 1 53 30.69c2.13-2.18 5.3-3.28 9.45-3.28.18 0 10.19 1 10.33 10.9A12.57 12.57 0 0 1 81.13 40a10.07 10.07 0 0 1 4.1 6.69h32.88Z" style="fill:#128c7e" data-name="Path 12281"/><path d="M375.7 45h-9.54l-.05-.95a10.4 10.4 0 0 0-3.3-6.57c-2.14-1.8-5.17-2.5-9-2.09l-1.14.13v-1.15a6.68 6.68 0 0 0-1.86-4.4c-1.55-1.57-3.95-2.37-7.14-2.37-.23 0-7.93.84-7.4 8.93l.09 1.35-1.32-.31s-4.19-1-7.16 1.07a7.62 7.62 0 0 0-3 5.5l-.12.86H296.9v-2h26.16a9.17 9.17 0 0 1 3.73-6 11.39 11.39 0 0 1 7.49-1.56c.2-8.9 9.24-9.81 9.34-9.82 3.84 0 6.72 1 8.65 3a8.65 8.65 0 0 1 2.32 4.73c3.93-.26 7.13.64 9.51 2.65a12 12 0 0 1 3.9 7h7.72Z" style="fill:#128c7e" data-name="Path 12280"/><path style="fill:#128c7e" d="M277.6 42.98h15v2h-15z" data-name="Line 98"/><g style="opacity:.2;isolation:isolate"><path d="M238.56 56.53 231 54.12V35h-7.13v16.84L203 45.23v124.18h35.6Zm-26.79 59.88h-4.6v-5.49h4.6Zm0-11.89h-4.6V99h4.6Zm0-10.07h-4.6V89h4.6Zm0-11.89h-4.6v-5.49h4.6Zm0-11.89h-4.6v-5.49h4.6Zm7.68 45.74h-4.6v-5.49h4.6Zm0-11.89h-4.6V99h4.6Zm0-10.07h-4.6V89h4.6Zm0-11.89h-4.6v-5.49h4.6Zm0-11.89h-4.6v-5.49h4.6Zm3.07 45.74v-5.49h4.6v5.49Zm0-11.89V99h4.6v5.49Zm0-10.07V89h4.6v5.49Zm0-11.89v-5.49h4.6v5.49Zm0-11.89v-5.49h4.6v5.49Zm12.3 45.74h-4.61v-5.49h4.61Zm0-11.89h-4.61V99h4.61Zm0-10.07h-4.61V89h4.61Zm0-11.89h-4.61v-5.49h4.61Zm0-11.89h-4.61v-5.49h4.61Z" style="fill:#7cc4b6"/></g><g style="opacity:.2;isolation:isolate"><path style="fill:#7cc4b6" d="M316.67 103.22v40.6l-.01 73.23-286.12-1.06v-72.92h4.83V92.5h2.51v-6.94h2.26V79.5h6.15V14.94h1.06V79.5h6.15v6.06h2.26v6.94h2.51v50.57H63v8.06h8.27v-36.81h1.49v-6.57h16.33v6.57h2.96v21.43h13.79v14.5h7.83v44.91h35.67v-46.04h5.07v-29.51h1.7v-5.29h13.58v5.29h1.48v16.14h6.36V96.72h1.7v-7.13h19.3v7.13h2.12v30.46h13.15v21.94h6.58v-34.8h1.9V99.68h27.58v14.64h2.75v26.23h15.06V59.83h15.91v9.08h6.15v7.06h9.76v27.25h17.18z"/></g><path d="M278.57 169.73h-6.49V162h6.49Zm0-16.71h-6.49v-7.71h6.49Zm0-16.71h-6.49v-7.7h6.49Zm0-14.13h-6.49v-7.71h6.49Zm0-16.71h-6.49v-7.7h6.49Zm0-16.7h-6.49V81h6.49Zm10.81 81h-6.48V162h6.48Zm0-16.71h-6.48v-7.71h6.48Zm0-16.71h-6.48v-7.7h6.48Zm0-14.13h-6.48v-7.71h6.48Zm0-16.71h-6.48v-7.7h6.48Zm0-16.7h-6.48V81h6.48Zm10.8 81h-6.46V162h6.48Zm0-16.71h-6.46v-7.71h6.48Zm0-16.71h-6.46v-7.7h6.48Zm0-14.13h-6.46v-7.71h6.48ZM311 169.73h-6.48V162H311Zm0-16.73h-6.48v-7.71H311Zm0-16.71h-6.48v-7.7H311Zm0-14.13h-6.48v-7.71H311Z" style="fill:#fff"/><g style="opacity:.4;isolation:isolate"><path d="M206.13 135.54c7.11 21.79 36.17 30.21 56 21.79 14.52-6.11 26.76-26 19.11-40.53a50.19 50.19 0 0 0-39-26c-20.63-.76-40.53 17.58-37.71 38a31 31 0 0 0 1.55 6.79" style="fill:#128c7e"/></g><g style="opacity:.4"><path d="M246.36 210.75a1 1 0 0 0 1-1v-62.34a1 1 0 0 0-1-1c-.49 0-12.12-.22-17.53-14.66a1 1 0 0 0-1.24-.58 1 1 0 0 0-.58 1.25c5 13.26 15.2 15.46 18.38 15.85v61.55a1 1 0 0 0 .97.93Z" style="fill:#128c7e"/><path d="M248.31 148.44a15.35 15.35 0 0 0 9-2.71c3.15-2.27 5.16-5.82 5.85-10.58a1 1 0 0 0-1.92-.29c-.64 4.21-2.34 7.34-5 9.3a14.35 14.35 0 0 1-9.67 2.23 1 1 0 0 0-1.11.79 1 1 0 0 0 .79 1.12 16 16 0 0 0 2.06.14Z" style="fill:#128c7e"/><path d="M258.93 143.89a1 1 0 0 0 1-.92 1 1 0 0 0-.92-1c-.22 0-5.15-.6-4.69-8.17a1 1 0 1 0-1.93-.11c-.5 9.53 6.44 10.2 6.44 10.21Z" style="fill:#128c7e"/><path d="M260.82 143a9.82 9.82 0 0 0 8.88-5.23 1 1 0 0 0-.27-1.34 1 1 0 0 0-1.34.27l-.08.14a8 8 0 0 1-8.18 4.16 1 1 0 0 0-.36 1.91 10.2 10.2 0 0 0 1.35.09ZM238.11 145.18a1 1 0 0 0 .53-.16c.06 0 5.8-3.86.8-12a1 1 0 0 0-1.65 1c4 6.44 0 9.32-.22 9.43a1 1 0 0 0 .54 1.77Z" style="fill:#128c7e"/><path d="M231.64 148a9.85 9.85 0 0 0 6.91-2.67 1 1 0 1 0-1.45-1.33c-.2.22-5.15 5.45-14.47-1.65a1 1 0 0 0-1.35.17 1 1 0 0 0 .18 1.37C225.52 147 229 148 231.64 148Z" style="fill:#128c7e"/></g><g style="isolation:isolate"><path d="m5.57 95.83.48-5.06-3.9-3.25 5-1.12L9 81.7l2.58 4.37 5.08.35-3.37 3.8 1.24 4.93-4.66-2Zm-1.22-7.78 2.75 2.29-.34 3.57 3-1.9 3.28 1.42-.83-3.43 2.36-2.69L11 87l-1.82-3-1.34 3.27Z" style="fill:#f28500"/></g><g style="isolation:isolate"><path d="m237.62 33.56.48-5.06-3.9-3.25 5-1.11 1.9-4.71 2.59 4.37 5.07.35-3.41 3.85 1.24 4.92-4.66-2Zm-1.22-7.78 2.74 2.3-.33 3.56 3-1.9 3.28 1.42-.87-3.47 2.4-2.69-3.57-.25-1.83-3.08-1.34 3.33Z" style="fill:#f28500"/></g><g style="isolation:isolate"><path d="M340.39 75.71a5.72 5.72 0 1 1 5.72-5.71 5.73 5.73 0 0 1-5.72 5.71Zm0-10.44a4.72 4.72 0 1 0 4.72 4.73 4.73 4.73 0 0 0-4.72-4.73Z" style="fill:#f28500"/></g><g style="isolation:isolate"><path d="M133.45 11.44a5.72 5.72 0 1 1 5.72-5.72 5.73 5.73 0 0 1-5.72 5.72Zm0-10.44a4.72 4.72 0 1 0 4.72 4.72A4.73 4.73 0 0 0 133.45 1Z" style="fill:#f28500"/></g><g style="isolation:isolate"><path style="fill:#bae2d6" d="M16.63 245.68h347.43v3.95H16.63z" data-name="Rectangle 2128"/></g><path style="fill:#fff" d="M148.91 228.88h16.79l-.47 10.79-6.48 5.53-3.7.6-5.34-2.82-2.28-4.93 1.48-9.17z"/><path d="M164.81 180.17h-98.6a16 16 0 0 0-15.9 16v24a7.94 7.94 0 0 0 7.9 8h114.5a8 8 0 0 0 8-8v-24a16 16 0 0 0-15.9-16Z" style="fill:#2ccf54" data-name="Path 12254"/><path d="M164.81 204.27a8 8 0 1 1-7.9-8 7.94 7.94 0 0 1 7.9 8Z" style="fill:#fff" data-name="Path 12255"/><path d="M133 201.57H98l-10.6 26.7h56.2Z" style="fill:#fff" data-name="Path 12256"/><path d="M82.11 204.27a8 8 0 1 1-7.9-8 7.94 7.94 0 0 1 7.9 8Z" style="fill:#fff" data-name="Path 12257"/><g data-name="Group 4985"><path d="M74.11 193.57a10.65 10.65 0 1 0 10.6 10.7v-.1a10.61 10.61 0 0 0-10.6-10.6Zm0 17.5a6.85 6.85 0 1 1 6.8-6.9 6.77 6.77 0 0 1-6.8 6.9Z" style="fill:#128c7e" data-name="Path 12258"/><path d="M156.81 193.57a10.65 10.65 0 1 0 10.6 10.7v-.1a10.61 10.61 0 0 0-10.6-10.6Zm0 17.7a7.05 7.05 0 1 1 7-7.1v.1a7 7 0 0 1-7 7Z" style="fill:#128c7e" data-name="Path 12259"/><path d="M118.11 148.17a2.65 2.65 0 1 1-2.6-2.7 2.67 2.67 0 0 1 2.6 2.7Z" style="fill:#128c7e" data-name="Path 12260"/><path d="M180.71 171.17a2.69 2.69 0 0 0 2.7-2.7c0-1.5-1.2-1.7-2.7-1.7h-8a2.73 2.73 0 0 0-1.9.8l-6.3 7.5c-4.4-23.1-4.2-23.2-4.3-23.3a7.93 7.93 0 0 0-7.8-6.3h-25.1c-1.5 0-2.7.2-2.7 1.7a2.69 2.69 0 0 0 2.7 2.7h25.2c1.2 0 3.3.9 3.6 2.1l4.7 25.6h-21.4l-15.1-15.3a2.66 2.66 0 0 0-3.7 0c-1 1 0 2.7 1 3.8l11.4 11.5h-27.1l-15.2-15.3a2.38 2.38 0 0 0-3.4-.1.1.1 0 0 0-.1.1c-1 1 0 2.7 1 3.8l11.4 11.5h-29.4l4.7-25.6c.3-1.2 2.3-2.1 3.6-2.1h25c1.5 0 2.7-.2 2.7-1.7a2.67 2.67 0 0 0-2.6-2.7h-25.1a8 8 0 0 0-7.8 6.4l-4.2 23.2-6.3-7.5a2.73 2.73 0 0 0-1.9-.8h-8a2.69 2.69 0 0 0-2.7 2.7c0 1.5 1.2 1.7 2.7 1.7h6.8l5.5 6.7a18.64 18.64 0 0 0-15 18.3v24a10.69 10.69 0 0 0 10.6 10.7h5.3v5.3a10.6 10.6 0 1 0 21.2 0v-5.3h61.5v5.3a10.6 10.6 0 0 0 21.2 0v-5.3h5.3a10.63 10.63 0 0 0 10.6-10.7v-24a18.64 18.64 0 0 0-15-18.3l5.5-6.7Zm-99.9 66.1a6.65 6.65 0 1 1-13.3.1v-6.7h13.3Zm12.4-21.1h44.6l3.4 10.8h-51.3Zm1.5-3.9 3.5-9.5h34.5l3.5 9.5Zm68.5 24.7a6.37 6.37 0 0 1-6.7 6 6.45 6.45 0 0 1-6-6v-6h12.7Zm16-41.1v25.4a5.42 5.42 0 0 1-5.4 5.6h-27.9l-10.1-26.5a2.67 2.67 0 0 0-2.5-1.8h-35.8a2.67 2.67 0 0 0-2.5 1.8c-1.1 2.8-9 23.5-10.1 26.5H57a5.48 5.48 0 0 1-5.4-5.6v-25.4c0-7.8 6.1-14.1 13.5-14.1h100.7c7.4 0 13.4 6.3 13.4 14.1Z" style="fill:#128c7e" data-name="Path 12261"/></g><rect x="197.15" y="168.23" width="111.64" height="75.9" rx="8.42" style="fill:#fff"/><path d="M300.37 246.23h-94.79a10.54 10.54 0 0 1-10.53-10.52v-59.06a10.54 10.54 0 0 1 10.53-10.52h94.79a10.53 10.53 0 0 1 10.52 10.52v59.06a10.53 10.53 0 0 1-10.52 10.52Zm-94.79-75.9a6.34 6.34 0 0 0-6.33 6.32v59.06a6.33 6.33 0 0 0 6.33 6.32h94.79a6.32 6.32 0 0 0 6.32-6.32v-59.06a6.33 6.33 0 0 0-6.32-6.32Z" style="fill:#128c7e"/><g data-name="Group 3025"><path d="M251.14 229.78H232v-10.36l4.14 1.82 3.11-4.66 1.29 1a70.06 70.06 0 0 0 6.47 2.85c2.59 1 3.89 2.07 3.89 4.66Z" style="fill:#ff8b07" data-name="Path 12619"/><path d="M230.17 219.42v10.36H211v-4.66c0-2.59 1.29-3.63 3.88-4.66a48.66 48.66 0 0 0 6.47-2.85l1.56-1L226 221l4.15-1.56Z" style="fill:#ff8b07" data-name="Path 12620"/></g><path d="M219.37 203.87v-1.3c-1.56-17.34 18.9-14.23 19.67-14.23a3.5 3.5 0 0 0-1.81 4.66h.52a4.61 4.61 0 0 1 4.92 4.14v.26a17.23 17.23 0 0 1 0 5.17v1.3c0 7.51-7.25 13.72-11.65 13.72s-11.65-6.21-11.65-13.72Zm18.12-10.62Z" style="fill:#ff8b07" data-name="Union 22"/><path style="fill:#fff" d="M277.06 210.92h-15.27"/><path d="M277.06 213.42h-15.27a2.5 2.5 0 0 1 0-5h15.27a2.5 2.5 0 0 1 0 5Z" style="fill:#128c7e"/><path style="fill:#fff" d="M296.29 225.07h-34.5"/><path d="M296.29 227.57h-34.5a2.5 2.5 0 0 1 0-5h34.5a2.5 2.5 0 0 1 0 5Z" style="fill:#128c7e"/><path style="fill:#fff" d="m295.38 206.54-8.44 8.43"/><path d="M286.94 217.47a2.5 2.5 0 0 1-1.77-4.26l8.44-8.44a2.5 2.5 0 0 1 3.54 3.53l-8.44 8.44a2.49 2.49 0 0 1-1.77.73Z" style="fill:#128c7e"/><path style="fill:#fff" d="m286.94 206.54 8.44 8.43"/><path d="M295.38 217.47a2.49 2.49 0 0 1-1.77-.73l-8.44-8.44a2.5 2.5 0 0 1 3.54-3.53l8.44 8.44a2.5 2.5 0 0 1-1.77 4.26Z" style="fill:#128c7e"/></g></g></svg>